HIERARCHY
ROOT hip
{
	OFFSET 0.000000 0.000000 0.000000 
	CHANNELS 6 Xposition Yposition Zposition Xrotation Zrotation Yrotation
	JOINT abdomen
	{
		OFFSET 0.000000 3.402643 0.000000 
		CHANNELS 3 Xrotation Zrotation Yrotation
		JOINT chest
		{
			OFFSET 0.000000 8.438565 -0.680529 
			CHANNELS 3 Xrotation Zrotation Yrotation
			JOINT neck
			{
				OFFSET 0.000000 10.207942 -0.272212 
				CHANNELS 3 Xrotation Zrotation Yrotation
				JOINT head
				{
					OFFSET 0.000000 3.130431 0.000000 
					CHANNELS 3 Xrotation Zrotation Yrotation
					End Site
					{
						OFFSET 0.000000 3.130435 0.000000 
					}
				}
			}
			JOINT lCollar
			{
				OFFSET 3.470700 6.669187 -0.816635 
				CHANNELS 3 Yrotation Zrotation Xrotation
				JOINT lShldr
				{
					OFFSET 3.198488 0.000000 0.000000 
					CHANNELS 3 Zrotation Yrotation Xrotation
					JOINT lForeArm
					{
						OFFSET 10.139888 0.000000 0.000000 
						CHANNELS 3 Yrotation Zrotation Xrotation
						JOINT lHand
						{
							OFFSET 8.370511 0.000000 0.000000 
							CHANNELS 3 Zrotation Yrotation Xrotation
							End Site
							{
								OFFSET 4.083176 0.000000 0.000000 
							}
						}
					}
				}
			}
			JOINT rCollar
			{
				OFFSET -3.470700 6.669187 -0.816635 
				CHANNELS 3 Yrotation Zrotation Xrotation
				JOINT rShldr
				{
					OFFSET -3.198488 0.000000 0.000000 
					CHANNELS 3 Zrotation Yrotation Xrotation
					JOINT rForeArm
					{
						OFFSET -10.139888 0.000000 0.000000 
						CHANNELS 3 Yrotation Zrotation Xrotation
						JOINT rHand
						{
							OFFSET -8.370511 0.000000 0.000000 
							CHANNELS 3 Zrotation Yrotation Xrotation
							End Site
							{
								OFFSET -4.083176 0.000000 0.000000 
							}
						}
					}
				}
			}
		}
	}
	JOINT lThigh
	{
		OFFSET 5.308129 -1.633274 1.361059 
		CHANNELS 3 Xrotation Zrotation Yrotation
		JOINT lShin
		{
			OFFSET -2.041588 -20.007561 0.000000 
			CHANNELS 3 Xrotation Zrotation Yrotation
			JOINT lFoot
			{
				OFFSET 0.000000 -19.190928 -1.224953 
				CHANNELS 3 Xrotation Yrotation Zrotation
				End Site
				{
					OFFSET 0.000000 -2.449906 4.627600 
				}
			}
		}
	}
	JOINT rThigh
	{
		OFFSET -5.308129 -1.633274 1.361059 
		CHANNELS 3 Xrotation Zrotation Yrotation
		JOINT rShin
		{
			OFFSET 2.041588 -20.007561 0.000000 
			CHANNELS 3 Xrotation Zrotation Yrotation
			JOINT rFoot
			{
				OFFSET 0.000000 -19.190928 -1.224953 
				CHANNELS 3 Xrotation Yrotation Zrotation
				End Site
				{
					OFFSET 0.000000 -2.449906 4.627600 
				}
			}
		}
	}
}
MOTION
Frames: 14
Frame Time: 0.016667
4.878852 46.757099 -192.101257 13.999880 -6.979009 -42.279850 56.629841 12.448713 12.766990 8.929287 2.555616 -3.596224 -2.065723 4.861684 -0.310668 -13.536353 -11.549662 47.195091 -28.904934 0.387571 0.022302 -53.802338 -25.699909 2.263406 -100.608917 5.000000 9.529389 -11.872169 2.436108 -45.000000 17.213388 3.959198 -0.212283 82.764984 42.796391 45.000000 97.582130 -5.000000 4.286207 13.583187 -30.000000 -2.026132 -54.963963 22.497456 -1.638765 61.195908 -3.276566 -6.489650 -20.195742 8.841697 3.109845 -29.380281 -1.095119 20.677702 79.955345 2.541399 20.509863 -2.497127 -12.528030 6.122122 
4.959626 46.816982 -190.611252 13.264530 -6.397175 -42.613274 56.722458 11.459334 12.392930 8.908162 2.623494 -3.860149 -2.094882 4.988667 -0.320029 -13.357442 -11.466593 47.389568 -28.709808 0.748418 0.040891 -54.134544 -25.768408 2.448813 -100.763672 5.000000 9.693217 -11.717348 2.216210 -45.000000 17.310719 3.871409 -0.207738 83.076286 42.967182 45.000000 97.568192 -5.000000 4.272263 13.510863 -30.000000 -1.760112 -52.954189 21.560343 1.167897 62.721943 -2.993519 -6.372526 -21.670475 8.031960 3.968909 -32.570988 -0.920779 18.645836 82.013176 1.760632 20.421158 -5.111764 -13.881226 3.830029 
5.012331 46.874043 -189.155121 12.332168 -5.637848 -42.667217 56.715866 10.440585 11.674236 8.923307 2.700977 -4.212379 -2.055257 5.194354 -0.331455 -13.110518 -11.321906 47.551956 -28.495308 1.148275 0.061489 -54.418621 -25.806528 2.598662 -100.711388 5.000000 9.668267 -11.553137 2.029227 -45.000000 17.447401 3.861634 -0.207227 83.296631 43.064655 45.000000 97.614944 -5.000000 4.302115 13.471806 -30.000000 -1.521752 -50.720898 20.350842 4.012725 63.690475 -3.002768 -6.701894 -22.893387 7.647436 5.094500 -35.881947 -0.715032 16.161940 83.520729 1.144177 19.465336 -8.995503 -15.557995 0.760046 
5.033113 46.904934 -187.708939 11.355059 -4.840720 -42.688423 56.667858 9.424051 10.907278 8.946584 2.788110 -4.573908 -2.005898 5.409697 -0.344350 -12.877615 -11.190944 47.716576 -28.300480 1.548132 0.082084 -54.687096 -25.818579 2.733484 -100.611427 5.000000 9.598606 -11.326090 1.806517 -45.000000 17.554823 3.861617 -0.207221 83.533356 43.155254 45.000000 97.662582 -5.000000 4.331418 13.445854 -30.000000 -1.309572 -48.513687 19.012634 6.819366 64.590103 -3.003979 -7.041307 -24.202164 7.169538 6.271261 -39.154324 -0.557878 13.871099 84.760216 0.656042 18.414217 -12.812129 -16.718365 -2.242474 
5.021704 46.899624 -186.262680 10.242894 -3.881382 -42.454185 56.373909 8.432487 9.798607 9.067931 2.865443 -4.926164 -1.867967 5.674776 -0.354946 -12.673196 -11.132089 47.866505 -28.154627 1.947989 0.103006 -54.861679 -25.696939 2.765496 -100.269394 5.000000 9.261159 -10.796550 1.413848 -45.000000 17.535614 3.949393 -0.211763 83.848618 43.152367 45.000000 97.690170 -5.000000 4.339643 13.428164 -30.000000 -1.147174 -46.154697 17.290588 9.728970 65.181458 -3.003869 -7.227659 -25.569080 6.446547 7.620975 -42.409245 -0.107730 12.434837 84.590355 0.656915 16.991362 -15.205183 -15.760088 -3.664454 
4.983120 46.867798 -184.816223 9.093791 -2.881541 -42.194942 56.055637 7.460066 8.623910 9.198462 2.942700 -5.278435 -1.720247 5.949510 -0.367023 -12.463810 -11.086370 48.020210 -28.028448 2.347846 0.123661 -55.034023 -25.541563 2.794717 -99.890480 5.000000 8.882988 -10.223698 0.995375 -45.000000 17.487194 4.056679 -0.217314 84.177536 43.142101 45.000000 97.729286 -5.000000 4.353318 13.411301 -30.000000 -1.000666 -43.888752 15.395463 12.572498 65.725479 -2.964894 -7.367066 -26.932697 5.653412 8.973711 -45.641468 0.360908 11.176543 84.162643 0.754068 15.499161 -17.331181 -14.517132 -4.770075 
4.924085 46.816868 -183.353622 8.025968 -1.949356 -41.875469 55.702335 6.630136 7.479245 9.349652 3.010206 -5.591174 -1.622195 6.203473 -0.385797 -12.355065 -11.070419 48.128929 -27.941196 2.630670 0.138266 -55.102802 -25.349447 2.745140 -99.734238 5.000000 8.705985 -10.070380 0.828151 -45.000000 17.370543 4.193233 -0.224381 84.486801 43.107735 45.000000 97.741623 -5.000000 4.359894 13.446305 -30.000000 -0.886644 -41.672009 13.373718 15.044627 66.131271 -2.975224 -7.533915 -28.379652 5.100209 10.276476 -48.492779 1.024424 10.626606 82.472336 1.232985 15.002292 -18.585646 -13.648387 -4.557952 
4.845095 46.747128 -181.878494 7.048339 -1.089672 -41.513123 55.310452 5.958480 6.361106 9.520434 3.077683 -5.894678 -1.565101 6.415893 -0.417930 -12.329924 -11.077672 48.190777 -27.912306 2.796465 0.146826 -55.074657 -25.104359 2.631520 -99.808846 5.000000 8.738484 -10.335977 0.883755 -45.000000 17.185663 4.359057 -0.232962 84.768555 43.057564 45.000000 97.727119 -5.000000 4.366285 13.533934 -30.000000 -0.815252 -39.497456 11.257047 17.163572 66.488914 -2.983717 -7.677114 -29.920654 4.637063 11.453123 -50.993069 1.971788 10.742348 79.563393 2.082770 15.478765 -18.912230 -13.281706 -3.062519 
4.755070 46.668007 -180.388229 6.078126 -0.227947 -41.152763 54.943195 5.274588 5.254861 9.701289 3.135359 -6.187899 -1.516847 6.639429 -0.441926 -12.302472 -11.091370 48.254498 -27.883438 2.962259 0.155385 -55.046436 -24.858953 2.518414 -99.885132 5.000000 8.770838 -10.602703 0.938843 -45.000000 17.000854 4.534633 -0.242046 85.044685 43.015781 45.000000 97.713417 -5.000000 4.368555 13.616421 -30.000000 -0.754164 -37.409496 9.041503 19.195126 66.786949 -2.974515 -7.841746 -31.456877 4.214575 12.648112 -53.487873 2.907169 10.836512 76.648506 2.970984 15.923789 -19.255966 -12.992908 -1.586574 
4.656659 46.583961 -178.883423 5.367548 0.311166 -40.655003 54.634418 5.064437 4.297069 9.858463 3.193445 -6.344563 -1.538089 6.851848 -0.474051 -12.401338 -11.199796 48.288387 -27.951414 2.815970 0.147833 -54.818256 -24.708485 2.465450 -100.100174 5.000000 8.963248 -10.883451 1.104183 -45.000000 16.699238 4.788247 -0.255979 85.114754 43.060905 45.000000 97.689697 -5.000000 4.337883 14.084039 -30.000000 -0.767335 -35.414410 6.881155 20.451700 67.076813 -2.868035 -7.674983 -32.900875 3.929810 12.992322 -54.518078 3.788344 12.220479 71.087372 4.809137 16.295767 -19.685661 -13.195627 -0.364482 
4.552054 46.494465 -177.357925 4.666493 0.858433 -40.151886 54.328777 4.865697 3.335810 10.005932 3.241734 -6.510983 -1.560650 7.062807 -0.515752 -12.492479 -11.306027 48.333771 -28.029179 2.669681 0.140280 -54.590366 -24.557974 2.413741 -100.319466 5.000000 9.157292 -11.154512 1.260775 -45.000000 16.407442 5.041861 -0.269134 85.184753 43.105930 45.000000 97.666092 -5.000000 4.307276 14.546563 -30.000000 -0.786409 -33.501251 4.714079 21.630383 67.377350 -2.778891 -7.481325 -34.324337 3.616279 13.308122 -55.539104 4.713934 13.570882 65.536285 6.674674 16.524145 -20.041344 -13.481645 0.852232 
4.448074 46.403706 -175.797516 4.046586 1.394503 -39.486485 53.934654 4.882359 2.369096 10.201190 3.280133 -6.726189 -1.602841 7.264107 -0.557213 -12.616433 -11.381936 48.390366 -28.116446 2.396609 0.126179 -54.371082 -24.438589 2.447420 -100.594490 5.000000 9.399070 -11.279469 1.244105 -45.000000 16.067123 5.344245 -0.284812 85.125877 43.163086 45.000000 97.696892 -5.000000 4.280650 15.115608 -30.000000 -0.757300 -31.601309 2.402606 22.503738 67.496201 -2.616488 -7.147132 -35.388870 3.299724 13.406255 -55.794621 5.309476 14.321233 59.125259 8.110449 15.222998 -20.296663 -14.129764 2.472837 
4.343673 46.311916 -174.200317 3.538110 1.915059 -38.638634 53.425053 5.127985 1.391364 10.415763 3.298901 -6.999942 -1.665804 7.444634 -0.604112 -12.767261 -11.423244 48.482483 -28.203524 1.986999 0.105022 -54.143673 -24.367712 2.556081 -100.935753 5.000000 9.701251 -11.253721 1.046774 -45.000000 15.678318 5.695398 -0.303007 84.931396 43.250980 45.000000 97.783485 -5.000000 4.260589 15.790444 -30.000000 -0.683647 -29.693916 -0.011304 23.007307 67.446114 -2.466435 -6.604284 -36.122894 3.006461 13.286626 -55.340961 5.575848 14.404654 51.875473 8.794744 12.517389 -20.293953 -15.161156 4.514002 
4.242161 46.211689 -172.560333 3.025311 2.447164 -37.794331 52.887653 5.367020 0.395497 10.640004 3.317638 -7.263929 -1.710631 7.614039 -0.660394 -12.904611 -11.468631 48.554020 -28.329876 1.616400 0.085599 -53.989098 -24.250652 2.675623 -101.325478 5.000000 10.050764 -11.239144 0.819193 -45.000000 15.269935 6.017297 -0.319678 84.746231 43.329727 45.000000 97.854301 -5.000000 4.227932 16.418411 -30.000000 -0.605873 -27.786463 -2.434261 23.448694 67.354904 -2.291536 -6.109622 -36.482819 2.803489 13.084507 -54.694580 5.761011 14.047642 44.629654 9.051703 9.833047 -20.319876 -15.969211 6.365951 
